<?xml version="1.0" encoding="UTF-8"?>
<svg width="134px" height="23px" viewBox="0 0 134 23" version="1.1" xmlns="http://www.w3.org/2000/svg" xmlns:xlink="http://www.w3.org/1999/xlink">
    <!-- Generator: Sketch 42 (36781) - http://www.bohemiancoding.com/sketch -->
    <title>Group 5</title>
    <desc>Created with Sketch.</desc>
    <defs></defs>
    <g id="Page-1" stroke="none" stroke-width="1" fill="none" fill-rule="evenodd">
        <g id="Home-final" transform="translate(-57.000000, -56.000000)">
            <g id="Group-5" transform="translate(55.000000, 54.000000)">
                <g id="Group-4">
                    <g id="Group-2">
                        <g id="Group-3" transform="translate(0.176854, 0.000000)" fill="#00C76C">
                            <g id="Group" transform="translate(9.374099, 21.079267) scale(-1, 1) translate(-9.374099, -21.079267) translate(1.874099, 18.079267)">
                                <path d="M0.0545000455,5.94086236 C0.662883516,2.56284472 3.61752325,0 7.17074743,0 C10.7239716,0 13.6786113,2.56284472 14.2869948,5.94086236 L10.592874,5.94086236 C10.1067161,4.51807596 8.75820946,3.49498614 7.17074743,3.49498614 C5.5832854,3.49498614 4.23477881,4.51807596 3.74862086,5.94086236 L0.0545000455,5.94086236 Z" id="Combined-Shape"></path>
                            </g>
                            <path d="M6.85493394,16.3272258 C4.25492108,15.2315968 2.42973654,12.6593169 2.42973654,9.66074235 C2.42973654,5.66716812 5.66716812,2.42973654 9.66074235,2.42973654 C13.6543166,2.42973654 16.8917482,5.66716812 16.8917482,9.66074235 C16.8917482,13.6543166 13.6543166,16.8917482 9.66074235,16.8917482 L9.66074235,14.7490724 C9.63266425,15.7612353 8.80334187,16.5731254 7.78439241,16.5731254 C7.44623656,16.5731254 7.12896544,16.4837072 6.85493394,16.3272258 Z M9.66074235,14.643009 L9.66074235,13.1557285 C11.6575295,13.1557285 13.2762453,11.5370127 13.2762453,9.54022559 C13.2762453,7.54343847 11.6575295,5.92472268 9.66074235,5.92472268 C7.66395523,5.92472268 6.04523945,7.54343847 6.04523945,9.54022559 C6.04523945,11.0371038 6.95490132,12.3215191 8.25157451,12.8708209 L8.25157451,12.8775561 C9.04580953,13.0809981 9.63710867,13.7910589 9.66074235,14.643009 Z" id="Combined-Shape" transform="translate(9.660742, 9.660742) scale(-1, 1) rotate(115.000000) translate(-9.660742, -9.660742) "></path>
                        </g>
                        <path d="M37.3380145,11.7671075 C37.3380145,11.1992054 37.1182937,10.7056788 36.6788457,10.2865129 C36.2393976,9.86734707 35.6207992,9.65776728 34.8230319,9.65776728 C34.1469579,9.65776728 33.6128675,9.79636037 33.2207446,10.0735507 C32.8286217,10.350741 32.6325632,10.7259564 32.6325632,11.1992082 C32.6325632,11.4425949 32.6798877,11.6623156 32.774538,11.858377 C32.8691884,12.0544385 33.034824,12.2302151 33.2714499,12.3857121 C33.5080758,12.5412091 33.8190651,12.6798022 34.2044273,12.8014955 C34.5897895,12.9231888 35.0799357,13.0381197 35.6748808,13.1462915 C37.1622436,13.4167211 38.2980308,13.8696839 39.0822766,14.5051934 C39.8665224,15.1407029 40.2586394,16.0804316 40.2586394,17.3244077 L40.2586394,17.5677932 C40.2586394,18.2303456 40.1403282,18.8286621 39.9037024,19.3627606 C39.6670765,19.896859 39.3256642,20.3532021 38.8794554,20.7318035 C38.4332466,21.1104049 37.8923955,21.4011124 37.256886,21.6039346 C36.6213765,21.8067567 35.9047488,21.9081663 35.1069815,21.9081663 C34.1739995,21.9081663 33.3525819,21.7763339 32.6427043,21.512665 C31.9328266,21.2489962 31.3412707,20.8839217 30.868019,20.4174307 C30.3947672,19.9509396 30.0364534,19.4033279 29.7930667,18.7745791 C29.5496801,18.1458304 29.4279886,17.4596256 29.4279886,16.7159442 L29.4279886,16.1074807 L32.1052281,16.1074807 L32.1052281,16.5942515 C32.1052281,17.4461047 32.3519914,18.1255489 32.8455254,18.6326043 C33.3390594,19.1396598 34.1063919,19.3931837 35.1475458,19.3931837 C35.9588345,19.3931837 36.5605313,19.2174071 36.9526542,18.8658487 C37.3447771,18.5142902 37.5408357,18.0951306 37.5408357,17.6083574 C37.5408357,17.3784922 37.5002718,17.1587715 37.4191429,16.9491886 C37.3380141,16.7396056 37.1960407,16.5503078 36.9932185,16.3812893 C36.7903963,16.2122708 36.5132101,16.0601564 36.1616517,15.9249416 C35.8100932,15.7897268 35.3638911,15.674796 34.8230319,15.5801456 C34.1063935,15.4584523 33.4506116,15.2995773 32.8556665,15.1035159 C32.2607214,14.9074544 31.7435326,14.6471698 31.3040845,14.3226543 C30.8646364,13.9981388 30.5232242,13.5925005 30.2798375,13.1057273 C30.0364509,12.618954 29.9147594,12.0240179 29.9147594,11.3209009 L29.9147594,11.1992082 C29.9147594,10.6177846 30.0330706,10.0803139 30.2696965,9.58677987 C30.5063224,9.09324588 30.8375937,8.66394535 31.2635203,8.2988654 C31.6894469,7.93378546 32.2032554,7.64983865 32.8049612,7.44701646 C33.406667,7.24419427 34.0793505,7.1427847 34.8230319,7.1427847 C35.6613636,7.1427847 36.4050338,7.26109587 37.0540648,7.49772176 C37.7030958,7.73434765 38.2473272,8.05547796 38.6867753,8.46112234 C39.1262234,8.86676673 39.4574947,9.33325077 39.6805991,9.86058846 C39.9037035,10.3879262 40.015254,10.9422985 40.015254,11.5237221 L40.015254,12.2538783 L37.3380145,12.2538783 L37.3380145,11.7671075 Z M46.1539749,7.42673435 L55.1186709,7.42673435 L55.1186709,9.98228117 L48.8312145,9.98228117 L48.8312145,13.22742 L54.8752855,13.22742 L54.8752855,15.7829668 L48.8312145,15.7829668 L48.8312145,19.0686699 L55.3620563,19.0686699 L55.3620563,21.6242167 L46.1539749,21.6242167 L46.1539749,7.42673435 Z M68.9037502,18.581899 L64.0766062,18.581899 L63.3870142,21.6242167 L60.588082,21.6242167 L63.9751956,7.42673435 L69.0051608,7.42673435 L72.3922744,21.6242167 L69.5933422,21.6242167 L68.9037502,18.581899 Z M64.6445055,16.0263522 L68.3155688,16.0263522 L66.6727172,8.76535411 L66.3076391,8.76535411 L64.6445055,16.0263522 Z M77.7802401,21.6242167 L77.7802401,7.82881148 L82.078306,7.82881148 L84.7621214,18.6631067 L84.8413484,18.6631067 L87.4756469,7.82881148 L91.7935196,7.82881148 L91.7935196,21.6242167 L89.2582549,21.6242167 L89.2582549,10.6908876 L89.1790279,10.6908876 L86.3565652,21.6242167 L83.2171945,21.6242167 L80.3947318,10.6908876 L80.3155048,10.6908876 L80.3155048,21.6242167 L77.7802401,21.6242167 Z M98.6620798,7.42673435 L107.748469,7.42673435 L107.748469,9.98228117 L101.339319,9.98228117 L101.339319,13.22742 L107.626776,13.22742 L107.626776,15.7829668 L101.339319,15.7829668 L101.339319,21.6242167 L98.6620798,21.6242167 L98.6620798,7.42673435 Z M114.617029,7.42673435 L117.294268,7.42673435 L117.294268,9.98228117 L117.294268,19.0686699 L117.294268,21.6242167 L114.617029,21.6242167 L114.617029,19.0686699 L114.617029,9.98228117 L114.617029,7.42673435 Z M127.063171,7.42673435 L129.456461,13.22742 L129.943232,13.22742 L132.336522,7.42673435 L135.236865,7.42673435 L132.31624,14.3226543 L132.31624,14.6877325 L135.236865,21.6242167 L132.336522,21.6242167 L129.943232,15.7829668 L129.456461,15.7829668 L127.063171,21.6242167 L124.162829,21.6242167 L127.083454,14.6877325 L127.083454,14.3226543 L124.162829,7.42673435 L127.063171,7.42673435 Z" id="SEAMFIX-Copy-4" fill="#FFFFFF"></path>
                    </g>
                </g>
            </g>
        </g>
    </g>
</svg>